<?xml version="1.0" encoding="UTF-8"?>
<!DOCTYPE svg PUBLIC "-//W3C//DTD SVG 1.1//EN" "http://www.w3.org/Graphics/SVG/1.1/DTD/svg11.dtd">
<svg xmlns="http://www.w3.org/2000/svg" version="1.1" width="977px" height="255px" style="shape-rendering:geometricPrecision; text-rendering:geometricPrecision; image-rendering:optimizeQuality; fill-rule:evenodd; clip-rule:evenodd" xmlns:xlink="http://www.w3.org/1999/xlink">
<g><path style="opacity:0.976" fill="#fdfdfd" d="M 83.5,55.5 C 100.838,54.4185 117.171,57.9185 132.5,66C 128.962,74.2411 125.295,82.4078 121.5,90.5C 107.192,82.2737 92.1922,80.4404 76.5,85C 71.2017,89.7702 71.535,94.1036 77.5,98C 83.9737,100.048 90.4737,101.882 97,103.5C 110.599,104.797 122.265,110.464 132,120.5C 139.142,133.433 138.476,146.1 130,158.5C 121.353,167.24 110.853,172.406 98.5,174C 78.1142,176.492 58.7808,173.158 40.5,164C 39.2718,163.221 38.2718,162.221 37.5,161C 40.8715,153.064 44.5382,145.23 48.5,137.5C 64.6831,147.586 82.0164,150.42 100.5,146C 105.94,139.323 104.273,134.656 95.5,132C 85.136,129.46 74.8027,126.794 64.5,124C 42.542,116.585 35.042,101.751 42,79.5C 48.7092,67.4758 58.8759,59.9758 72.5,57C 76.3563,56.8227 80.023,56.3227 83.5,55.5 Z"/></g>
<g><path style="opacity:0.999" fill="#b1b1b8" d="M 423.5,57.5 C 435.505,57.3335 447.505,57.5001 459.5,58C 462.364,62.0326 465.031,66.1993 467.5,70.5C 461.167,78.5 454.833,86.5 448.5,94.5C 447.186,93.6872 446.019,92.6872 445,91.5C 438.055,80.8889 430.722,70.5555 423,60.5C 422.53,59.4232 422.697,58.4232 423.5,57.5 Z"/></g>
<g><path style="opacity:0.999" fill="#9898a0" d="M 548.5,57.5 C 567.503,57.3334 586.503,57.5001 605.5,58C 632.313,58.5376 651.48,70.7043 663,94.5C 672.882,133.583 658.715,159.083 620.5,171C 596.525,172.559 572.525,172.892 548.5,172C 547.167,153.333 547.167,134.667 548.5,116C 559.167,115.333 569.833,115.333 580.5,116C 581.486,125.75 581.819,135.584 581.5,145.5C 592.222,145.875 602.889,145.375 613.5,144C 629.718,136.052 635.551,123.218 631,105.5C 627.624,94.7892 620.457,88.2892 609.5,86C 588.869,84.5854 568.203,84.0854 547.5,84.5C 547.196,75.4161 547.529,66.4161 548.5,57.5 Z"/></g>
<g><path style="opacity:0.996" fill="#b1b1b9" d="M 504.5,57.5 C 516.328,57.0227 527.995,57.5227 539.5,59C 512.5,96.6667 485.5,134.333 458.5,172C 445.833,172.667 433.167,172.667 420.5,172C 448.387,133.715 476.387,95.5483 504.5,57.5 Z"/></g>
<g><path style="opacity:0.999" fill="#666572" d="M 786.5,63.5 C 796.855,63.1681 807.188,63.5014 817.5,64.5C 818.334,71.5631 818.668,78.8964 818.5,86.5C 824.842,86.3338 831.175,86.5005 837.5,87C 838.833,95 838.833,103 837.5,111C 831.175,111.5 824.842,111.666 818.5,111.5C 818.333,122.505 818.5,133.505 819,144.5C 819.833,146 821,147.167 822.5,148C 827.323,148.609 831.99,148.276 836.5,147C 839.013,153.864 841.679,160.698 844.5,167.5C 842.851,169.995 840.517,171.495 837.5,172C 826.052,175.504 814.718,175.171 803.5,171C 794.772,167.269 789.272,160.769 787,151.5C 785.668,138.204 785.168,124.871 785.5,111.5C 781.818,111.665 778.152,111.499 774.5,111C 774,110.5 773.5,110 773,109.5C 772.459,101.818 772.626,94.1517 773.5,86.5C 777.5,86.5 781.5,86.5 785.5,86.5C 785.233,78.7777 785.566,71.111 786.5,63.5 Z"/></g>
<g><path style="opacity:1" fill="#cccbd0" d="M 307.5,82.5 C 322.959,79.3748 335.792,83.7081 346,95.5C 350.092,89.7552 355.592,85.9219 362.5,84C 375.595,80.7173 387.928,82.3839 399.5,89C 407.619,96.7403 411.786,106.24 412,117.5C 412.667,135.5 412.667,153.5 412,171.5C 401.333,172.833 390.667,172.833 380,171.5C 379.667,153.833 379.333,136.167 379,118.5C 374.055,108.873 366.889,107.04 357.5,113C 356.206,115.087 355.039,117.254 354,119.5C 352.57,137.119 352.07,154.786 352.5,172.5C 341.833,172.5 331.167,172.5 320.5,172.5C 320.667,155.497 320.5,138.497 320,121.5C 317.049,110.109 310.216,106.942 299.5,112C 296.366,114.388 294.533,117.554 294,121.5C 293.667,138.167 293.333,154.833 293,171.5C 282.248,172.487 271.415,172.82 260.5,172.5C 260.5,142.833 260.5,113.167 260.5,83.5C 270.833,83.5 281.167,83.5 291.5,83.5C 291.336,86.1873 291.503,88.854 292,91.5C 296.558,87.3093 301.724,84.3093 307.5,82.5 Z"/></g>
<g><path style="opacity:1" fill="#7e7e8a" d="M 706.5,82.5 C 720.328,81.1268 733.661,82.9601 746.5,88C 757.589,94.9952 763.422,105.162 764,118.5C 764.667,136.167 764.667,153.833 764,171.5C 754.244,172.651 744.411,172.818 734.5,172C 733.887,169.853 733.221,167.686 732.5,165.5C 719.998,174.913 706.331,176.746 691.5,171C 675.541,162.12 671.374,149.287 679,132.5C 685.192,125.32 693.025,121.153 702.5,120C 712.161,119.5 721.828,119.334 731.5,119.5C 730.875,113.371 727.541,109.538 721.5,108C 710.101,106.213 699.601,108.379 690,114.5C 685.525,107.56 682.192,100.227 680,92.5C 688.279,87.466 697.112,84.1326 706.5,82.5 Z M 718.5,136.5 C 722.833,136.5 727.167,136.5 731.5,136.5C 732.744,146.93 728.077,152.597 717.5,153.5C 707.36,152.521 704.694,147.688 709.5,139C 712.628,138.159 715.628,137.325 718.5,136.5 Z"/></g>
<g><path style="opacity:0.998" fill="#4c4b5b" d="M 880.5,82.5 C 890.566,82.1048 900.566,82.6048 910.5,84C 925.897,88.0628 935.064,97.8962 938,113.5C 938.5,133.164 938.667,152.831 938.5,172.5C 929.121,172.447 919.788,172.614 910.5,173C 908.812,170.175 907.979,167.009 908,163.5C 903.211,169.981 896.711,173.481 888.5,174C 874.731,175.967 863.231,171.8 854,161.5C 844.771,138.131 852.605,124.298 877.5,120C 886.827,119.5 896.161,119.334 905.5,119.5C 905.505,113.353 902.505,109.519 896.5,108C 885.106,105.975 874.606,108.141 865,114.5C 860.516,107.699 856.682,100.532 853.5,93C 861.842,87.6119 870.842,84.1119 880.5,82.5 Z M 894.5,136.5 C 898.24,136.241 901.906,136.574 905.5,137.5C 906.926,146.917 902.76,152.25 893,153.5C 884.635,153.479 880.968,149.479 882,141.5C 882.833,140.667 883.667,139.833 884.5,139C 887.952,138.115 891.286,137.282 894.5,136.5 Z"/></g>
<g><path style="opacity:1" fill="#e5e5e7" d="M 148.5,83.5 C 159.167,83.5 169.833,83.5 180.5,83.5C 180.333,100.503 180.5,117.503 181,134.5C 182.297,142.087 186.797,146.087 194.5,146.5C 201.674,146.484 206.507,143.151 209,136.5C 210.445,118.889 210.945,101.223 210.5,83.5C 221.167,83.5 231.833,83.5 242.5,83.5C 242.5,113.167 242.5,142.833 242.5,172.5C 232.167,172.5 221.833,172.5 211.5,172.5C 211.808,170.076 211.474,167.743 210.5,165.5C 196.168,175.501 181.168,176.667 165.5,169C 155.317,163.143 149.817,154.31 149,142.5C 148.5,122.836 148.333,103.169 148.5,83.5 Z"/></g>
<g><path style="opacity:0.995" fill="#b1b1b8" d="M 513.5,134.5 C 515.017,134.511 516.184,135.177 517,136.5C 525.361,148.028 533.528,159.695 541.5,171.5C 528.833,172.833 516.167,172.833 503.5,171.5C 500.702,167.402 498.036,163.235 495.5,159C 501.703,150.966 507.703,142.8 513.5,134.5 Z"/></g>
</svg>
