<?xml version="1.0" standalone="no"?>
<!DOCTYPE svg PUBLIC "-//W3C//DTD SVG 20010904//EN"
 "http://www.w3.org/TR/2001/REC-SVG-20010904/DTD/svg10.dtd">
<svg version="1.0" xmlns="http://www.w3.org/2000/svg"
 width="697.000000pt" height="112.000000pt" viewBox="0 0 697.000000 112.000000"
 preserveAspectRatio="xMidYMid meet">

<g transform="translate(0.000000,112.000000) scale(0.100000,-0.100000)"
fill="#000000" stroke="none">
<path d="M865 943 c-115 -42 -170 -118 -163 -226 6 -106 64 -157 214 -192 104
-24 160 -44 179 -65 39 -43 -19 -90 -111 -90 -57 0 -158 25 -202 51 l-33 19
-33 -73 -33 -72 41 -22 c109 -58 326 -70 433 -23 97 41 150 125 141 222 -9 94
-76 144 -247 188 -115 29 -161 50 -161 74 0 75 115 99 247 51 37 -13 71 -21
74 -17 4 4 18 34 32 67 20 46 23 63 14 72 -48 46 -298 69 -392 36z"/>
<path d="M3176 898 c21 -29 53 -75 73 -103 19 -27 37 -53 41 -58 5 -6 120 124
120 137 0 4 -10 22 -22 41 l-23 35 -113 0 -114 0 38 -52z"/>
<path d="M3405 608 c-138 -188 -256 -350 -263 -360 -13 -17 -8 -18 100 -18
l114 0 226 317 c125 175 241 337 258 361 l32 42 -109 0 -109 0 -249 -342z"/>
<path d="M3940 870 l0 -80 183 0 c102 0 199 -5 222 -11 74 -21 135 -106 135
-189 0 -83 -61 -168 -135 -189 -22 -6 -77 -11 -122 -11 l-83 0 0 95 0 95 -100
0 -100 0 0 -175 0 -175 195 0 c106 0 218 5 247 11 130 28 210 86 260 187 30
61 33 74 33 162 0 81 -4 103 -26 151 -47 100 -144 172 -267 198 -29 6 -141 11
-247 11 l-195 0 0 -80z"/>
<path d="M5460 841 l0 -70 -37 -3 -38 -3 -3 -72 -3 -73 41 0 40 0 0 -128 c0
-113 3 -133 23 -172 39 -78 151 -115 270 -90 64 13 66 16 38 95 l-18 50 -42
-3 c-71 -6 -81 11 -81 140 l0 108 65 0 66 0 -3 73 -3 72 -60 1 -60 0 -3 72 -3
72 -94 0 -95 0 0 -69z"/>
<path d="M6053 789 c-49 -8 -163 -46 -163 -55 0 -2 14 -32 31 -67 l31 -63 42
20 c29 15 61 21 108 21 57 0 70 -4 92 -24 14 -14 26 -33 26 -43 0 -16 -9 -18
-75 -18 -138 0 -223 -30 -260 -92 -22 -39 -22 -120 2 -160 57 -98 265 -117
333 -31 l20 26 0 -37 0 -36 91 0 91 0 -4 198 c-5 215 -11 243 -65 293 -39 37
-79 55 -148 68 -66 12 -78 12 -152 0z m173 -344 c10 -25 -16 -75 -47 -90 -39
-21 -85 -19 -109 5 -26 26 -25 54 2 80 28 26 145 30 154 5z"/>
<path d="M2360 774 c-19 -8 -42 -22 -52 -31 -17 -15 -18 -14 -18 10 l0 27 -90
0 -90 0 0 -275 0 -275 95 0 95 0 0 164 c0 153 1 165 23 197 25 38 65 51 111
36 47 -16 56 -55 56 -237 l0 -160 95 0 95 0 0 163 c0 143 2 166 20 194 22 37
71 55 112 41 48 -17 58 -58 58 -237 l0 -161 96 0 96 0 -4 203 c-3 186 -5 206
-26 248 -34 70 -85 101 -176 107 -86 5 -134 -8 -182 -51 l-35 -30 -16 23 c-38
54 -183 79 -263 44z"/>
<path d="M4858 767 c-37 -13 -71 -27 -75 -30 -3 -4 6 -34 22 -68 21 -43 34
-59 45 -55 8 2 35 12 60 21 67 25 146 16 177 -19 40 -47 33 -53 -79 -59 -128
-7 -174 -20 -215 -63 -81 -86 -41 -219 78 -257 93 -30 169 -18 227 36 l32 31
0 -37 0 -37 85 0 85 0 0 188 c0 105 -5 204 -11 227 -14 51 -73 108 -135 129
-73 25 -212 21 -296 -7z m252 -340 c0 -42 -34 -76 -83 -84 -49 -8 -87 17 -87
57 0 42 31 60 107 60 l63 0 0 -33z"/>
<path d="M1392 583 c3 -184 5 -201 27 -246 28 -57 75 -92 147 -108 66 -15 133
-5 179 27 45 30 55 30 55 -1 0 -25 1 -25 90 -25 l90 0 0 275 0 275 -94 0 -94
0 -4 -157 c-3 -136 -6 -163 -23 -191 -41 -68 -142 -65 -171 4 -10 24 -14 79
-14 189 l0 155 -96 0 -96 0 4 -197z"/>
<path d="M3660 384 c-27 -37 -50 -71 -50 -76 0 -4 10 -24 23 -43 l22 -35 113
0 c88 0 112 3 106 13 -28 48 -147 207 -154 207 -5 0 -32 -30 -60 -66z"/>
</g>
</svg>
